<?xml version="1.0" encoding="UTF-8"?>
<svg width="16px" height="16px" viewBox="0 0 16 16" version="1.1" xmlns="http://www.w3.org/2000/svg" xmlns:xlink="http://www.w3.org/1999/xlink">
    <!-- Generator: Sketch 41.2 (35397) - http://www.bohemiancoding.com/sketch -->
    <title>mat/chip/icon/light/remove</title>
    <desc>Created with Sketch.</desc>
    <defs></defs>
    <g id="Page-1" stroke="none" stroke-width="1" fill="none" fill-rule="evenodd">
        <g id="mat/chip/color" transform="translate(-96.000000, -8.000000)">
            <g id="mat/chip/icon/light/remove" transform="translate(92.000000, 4.000000)">
                <rect id="chip/bg" x="0" y="0" width="24" height="24"></rect>
                <path d="M12,4 C7.58,4 4,7.58 4,12 C4,16.42 7.58,20 12,20 C16.42,20 20,16.42 20,12 C20,7.58 16.42,4 12,4 L12,4 Z M16,14.868 L14.868,16 L12,13.132 L9.132,16 L8,14.868 L10.868,12 L8,9.132 L9.132,8 L12,10.868 L14.868,8 L16,9.132 L13.132,12 L16,14.868 L16,14.868 Z" id="Fill-2" fill="#FFFFFF" fill-rule="evenodd"></path>
            </g>
        </g>
    </g>
</svg>